PathFileType	4	(X/Y/Z)	31_1_49_p1_0-286.trc
DataRate	CameraRate	NumFrames	NumMarkers	Units	OrigDataRate	OrigDataStartFrame	OrigNumFrames
47.0	47.0	5	27	m	47.0	71	287
Frame#	Time	RHip			RKnee			RAnkle			RBigToe			RSmallToe			RHeel			LHip			LKnee			LAnkle			LBigToe			LSmallToe			LHeel			Neck			Head			Nose			RShoulder			RElbow			RWrist			RThumb			RIndex			RPinky			LShoulder			LElbow			LWrist			LThumb			LIndex			LPinky			
		X1	Y1	Z1	X2	Y2	Z2	X3	Y3	Z3	X4	Y4	Z4	X5	Y5	Z5	X6	Y6	Z6	X7	Y7	Z7	X8	Y8	Z8	X9	Y9	Z9	X10	Y10	Z10	X11	Y11	Z11	X12	Y12	Z12	X13	Y13	Z13	X14	Y14	Z14	X15	Y15	Z15	X16	Y16	Z16	X17	Y17	Z17	X18	Y18	Z18	X19	Y19	Z19	X20	Y20	Z20	X21	Y21	Z21	X22	Y22	Z22	X23	Y23	Z23	X24	Y24	Z24	X25	Y25	Z25	X26	Y26	Z26	X27	Y27	Z27	
71	1.5106382978723405	0.14599596794822553	0.5666805228819197	0.181932027284583	0.11593806390955083	0.6777237945083638	0.5699279239471046	0.08736701886766904	1.0669439780780285	0.9329874844500319	0.06976062269031667	0.7824986676244254	0.9948639412423161	0.12861361573248015	0.8792274137011332	1.0056228378153866	0.09668704969618497	1.2003196893589716	0.9735132060243108	-0.04780327693384172	0.5807449519903681	0.14363218615027323	-0.07964054734318626	0.6855074594732906	0.5367709238928591	-0.06007232402316952	1.0294819606320875	0.8890453186899853	-0.07604046097060695	0.7901238073969817	0.97152311782278	-0.1099129236938269	0.8176818667302588	0.9555954841667575	-0.02930514718944165	1.1768588970690226	0.9447078976390428	0.214945462044307	0.17049395028443748	-0.22283235041294444	0.26766704091289667	-0.08380459496839798	-0.3880864171448519	0.22498849078636965	-0.044566568395364194	-0.21918133805897314	0.37859969466573246	0.21713497159351555	-0.18842347808252594	0.5975612043603927	0.504357236341153	-0.14563402016305038	0.8523806871504515	0.6100540679995509	-0.06125204705609033	0.9792500312036339	0.7104438830588435	-0.04603710220101034	0.984822206356316	0.7160478023064091	-0.028152821613792168	0.9520458507118083	0.7044939823699276	-0.016255631850823012	0.05554693197485723	0.161859957331312	-0.2580745568334555	-0.2379230527031367	0.2528358826962588	-0.3137553037811643	-0.5080078779508019	0.25696039540534604	-0.3983100671846561	-0.5989300750459335	0.225122387063344	-0.37976019556158147	-0.6362287019329803	0.29180080176058887	-0.43038505356444956	-0.6362124208255767	0.2945875128004202	-0.4321987290199826
72	1.5319148936170213	0.15294469006578842	0.5630805723227558	0.18319816263856573	0.11637522259227233	0.6729313414217938	0.5623097088649011	0.08708397786260336	1.0668126088466063	0.9330609987227979	0.07041539770964447	0.784540326219361	0.994523423722421	0.12926181879860832	0.8820645611999457	1.0053719277829951	0.09084391066894718	1.2022262511886808	0.9741251596479623	-0.04057624325131648	0.6052185397074292	0.14073086655971462	-0.07999366446589387	0.6855411526563804	0.5372581427305875	-0.060290086594593145	1.0292736996970027	0.8929985196978076	-0.07608582727368754	0.790259971036774	0.9715755316313613	-0.114480501650263	0.8338541794376518	0.9569381278176177	-0.028995794612324502	1.1789721963765822	0.9472846118086384	0.2147744899739396	0.17456131195557945	-0.21600064611261316	0.25924623815811515	-0.09276427515487995	-0.3812136276001286	0.2204653137991286	-0.05078950154357323	-0.210040179338223	0.37843198365514513	0.21697401367688154	-0.18853831215254876	0.5925454036965425	0.4833238431470716	-0.14856669134948555	0.8515954533953995	0.6077455691271887	-0.06927214066322092	0.9823396201543364	0.6842226498173487	-0.06157221526711895	0.9832285809521074	0.6894434833736718	-0.04411161306982704	0.952807412980587	0.693759575807354	-0.033214556625409286	0.0550182146293115	0.16546539585307438	-0.2523752775412796	-0.24583402715485583	0.25633373864209	-0.30707428869939696	-0.5097404666315802	0.2632825563864473	-0.386422767977037	-0.6097535531887965	0.2607472674994132	-0.3860869554504199	-0.6441362839388399	0.29301960040776354	-0.4159692050557892	-0.6429684784921779	0.2919684529607882	-0.4222925811617913
73	1.553191489361702	0.15812685336864202	0.5783868085283089	0.18492925478990724	0.12211750796877589	0.6806633948413808	0.5708369418324349	0.08721311142543975	1.066539736501519	0.9329336429772137	0.07103360017005211	0.7862373064580658	0.9943602800023187	0.1298685923669828	0.8826759484202112	1.005289565839796	0.08681077506538964	1.1823401309649488	0.971451037605946	-0.040022541562261406	0.6081306471223075	0.14468480431490302	-0.07459910795364677	0.6906361360041133	0.541163993528199	-0.06024449322775736	1.029456491415869	0.8933669405083199	-0.07608426946910743	0.7903756237110667	0.9717578750320696	-0.11118822407259524	0.8494452617252466	0.9588762757051258	-0.029298233404680633	1.1785966310051037	0.9483479264041341	0.21025740388652558	0.17826581941783923	-0.20576582705523383	0.2250207212338728	-0.11773597595381546	-0.3691737362566569	0.21228098590477046	-0.05738916316586516	-0.1975363769808026	0.374563332488225	0.21444048623257467	-0.19521216351452614	0.5966948685919888	0.4751234563248031	-0.1616999042520216	0.8616774503845951	0.6706025343881092	-0.14764026030271812	0.9826893171145509	0.6888240469425401	-0.09384459882429612	0.9876656579540201	0.6781983310713452	-0.0798030546765738	0.9657379999759674	0.6927925634176315	-0.07673929444865346	0.047107093849280884	0.15435059828391526	-0.24811428352981169	-0.2588082236151586	0.26796184848547056	-0.3006024416007214	-0.5243453952692897	0.29451869374001893	-0.34405411388849033	-0.611923676515211	0.2622690108470277	-0.334737959343481	-0.6505286116850618	0.30706564310893686	-0.38711509304150915	-0.6622353402623575	0.3169412939839866	-0.38374423721474493
74	1.574468085106383	0.16722936763578333	0.5927224761669398	0.18327890019146345	0.12550083953508523	0.6645335818654761	0.5714965826045393	0.08834433872402575	1.0639705272699322	0.9290243269888764	0.07113741483302699	0.7857880643006425	0.9942733843104876	0.13539864732723764	0.8840666043133419	1.0014541993467998	0.08677294471452159	1.1820452153621568	0.9713307281683754	-0.035879438710772434	0.5976860385989405	0.15450694407078022	-0.07443868139079217	0.6909623839090451	0.5411800427669067	-0.060161457257509786	1.0292042722349164	0.8933781936336127	-0.0771541445512707	0.7922067172584892	0.9748195017573741	-0.11111320570296469	0.8491895760333801	0.9592757114900391	-0.029208865949296677	1.178766136160738	0.948669710215884	0.20730017378253363	0.190200369840317	-0.2068595270945468	0.22029596100431684	-0.11634275049159915	-0.36173179973782715	0.21158187060762523	-0.05486540968442874	-0.1917977257965337	0.3678256350205541	0.21638386277065666	-0.1961823389987796	0.5916144978322316	0.444781926165324	-0.1613886041023203	0.8685133618513943	0.6267164084687316	-0.14926907153086683	0.9847635980206518	0.6378502947571254	-0.10699854825620309	0.9924266954830615	0.6149975275855157	-0.08247261610284815	0.9606652033500992	0.6317823959932283	-0.0752178068756778	0.04726201179480603	0.14703098432000794	-0.24196597374863776	-0.26206764525834425	0.25974312141297456	-0.29051463832095187	-0.522164805219761	0.2771813729851479	-0.32655303561494836	-0.6254171301567499	0.2774927150332909	-0.32308139222471166	-0.6553778610865423	0.312168404575211	-0.3705689630768932	-0.6583002957716148	0.3117375910243928	-0.36694292335457457
75	1.5957446808510638	0.1674282287027694	0.5928997625400213	0.18349655111512164	0.12147288383299555	0.6767263628473803	0.5667569198484304	0.08840651085006974	1.0641459941424714	0.9289785758918127	0.06820606901258659	0.8035672511548565	0.9960912358501416	0.13030263419011992	0.8822067264446224	1.0006485331282806	0.0878308665774773	1.1795711282486772	0.9682765460229137	-0.03659880718869514	0.5988693149448931	0.15841625773468165	-0.07220981210404621	0.7071545116112936	0.548541044802097	-0.05431637320127507	1.0293703047259413	0.8932930794567826	-0.07732092477173494	0.7923969383931724	0.9752187060332848	-0.11065778075331326	0.8531568811513516	0.964620224097803	-0.026847050047140508	1.178422579864428	0.9499418929021471	0.19882194747440957	0.1814274323481498	-0.20126299345406956	0.21643153366713164	-0.12485910712597885	-0.3604533081293974	0.2074745553532262	-0.053596270369417436	-0.1859621455039427	0.3594061742767839	0.21608535385879718	-0.19653270915764584	0.5986203095422276	0.49660872962116714	-0.18864069872811234	0.8759387695276348	0.6766711998080981	-0.17229294519416588	0.978234622884538	0.6160167121094193	-0.12399392990650691	0.9992372653247819	0.5915723398242757	-0.11089437461319855	0.9700326103421995	0.6213638894021826	-0.12373134232756992	0.0403602003868742	0.15940094170506733	-0.24310504443696113	-0.26212774140346073	0.2600708124155824	-0.2901710222231977	-0.526597042196245	0.30467758010743673	-0.32667893951543814	-0.6191667917934396	0.2752520921529563	-0.3033690831896894	-0.6630057904691072	0.33746519401560054	-0.3516244953490232	-0.6628389228848138	0.3369984675879677	-0.35676276194774514
